<?xml version="1.0" encoding="UTF-8" standalone="no"?>
<!-- Created with Inkscape (http://www.inkscape.org/) -->

<svg
   xmlns:dc="http://purl.org/dc/elements/1.1/"
   xmlns:cc="http://creativecommons.org/ns#"
   xmlns:rdf="http://www.w3.org/1999/02/22-rdf-syntax-ns#"
   xmlns:svg="http://www.w3.org/2000/svg"
   xmlns="http://www.w3.org/2000/svg"
   xmlns:sodipodi="http://sodipodi.sourceforge.net/DTD/sodipodi-0.dtd"
   xmlns:inkscape="http://www.inkscape.org/namespaces/inkscape"
   width="210mm"
   height="297mm"
   viewBox="0 0 210 297"
   version="1.1"
   id="svg8"
   inkscape:version="0.92.5 (2060ec1f9f, 2020-04-08)"
   sodipodi:docname="monplongeur.svg">
  <defs
     id="defs2" />
  <sodipodi:namedview
     id="base"
     pagecolor="#ffffff"
     bordercolor="#666666"
     borderopacity="1.0"
     inkscape:pageopacity="0.0"
     inkscape:pageshadow="2"
     inkscape:zoom="0.7089482"
     inkscape:cx="171.4611"
     inkscape:cy="520.36062"
     inkscape:document-units="mm"
     inkscape:current-layer="layer2"
     showgrid="false"
     inkscape:window-width="1920"
     inkscape:window-height="1043"
     inkscape:window-x="1920"
     inkscape:window-y="0"
     inkscape:window-maximized="1" />
  <metadata
     id="metadata5">
    <rdf:RDF>
      <cc:Work
         rdf:about="">
        <dc:format>image/svg+xml</dc:format>
        <dc:type
           rdf:resource="http://purl.org/dc/dcmitype/StillImage" />
        <dc:title></dc:title>
      </cc:Work>
    </rdf:RDF>
  </metadata>
  <g
     inkscape:label="fond"
     inkscape:groupmode="layer"
     id="layer1">
    <g
       id="g2143"
       transform="matrix(0.98907743,0,0,1.1623608,0.13142803,-47.474767)">
      <g
         transform="matrix(1,0,0,0.9970914,0,0.86385315)"
         id="g2138">
        <g
           id="g2101"
           transform="matrix(0.66692365,0,0,0.86643428,70.932241,39.669015)">
          <rect
             ry="6.4892841e-14"
             rx="58.264862"
             y="0.81785816"
             x="-107.49643"
             height="296.18213"
             width="320.45734"
             id="rect815"
             style="opacity:1;fill:#00ffff;fill-opacity:1;stroke:#000000;stroke-width:0;stroke-linejoin:round;stroke-miterlimit:4;stroke-dasharray:none;stroke-opacity:1" />
        </g>
      </g>
    </g>
  </g>
  <g
     inkscape:groupmode="layer"
     id="layer2"
     inkscape:label="cercle">
    <path
       style="opacity:1;fill:#f6ffd5;fill-opacity:1;stroke:#000000;stroke-width:0;stroke-linejoin:round;stroke-miterlimit:4;stroke-dasharray:none;stroke-opacity:1"
       id="path818"
       sodipodi:type="arc"
       sodipodi:cx="104.88658"
       sodipodi:cy="148.61429"
       sodipodi:rx="103.87471"
       sodipodi:ry="108.23582"
       sodipodi:start="2.7413537"
       sodipodi:end="2.7410047"
       d="M 9.2213063,190.78712 A 103.87471,108.23582 0 0 1 64.404657,48.936254 103.87471,108.23582 0 0 1 200.54479,106.42406 103.87471,108.23582 0 0 1 145.3852,248.28496 103.87471,108.23582 0 0 1 9.2354374,190.82191 L 104.88658,148.61429 Z" />
    <g
       style="fill:#0000ff;stroke:#000000"
       transform="matrix(0.25645177,0,0,0.30901519,23.707291,89.658407)"
       id="g66">
      <path
         style="fill:#0000ff;fill-rule:evenodd"
         id="path10"
         d="m 464.77,86.501 c 0,0 40.349,35.163 64.071,44.069 1.0767,0.40422 3.9824,0.5867 3.9824,0.5867 l 63.691,-31.707 3.1317,10.718 -60.199,34.339 c 0,0 -4.3886,4.0258 -6.9127,3.9431 -2.5238,-0.0826 -7.794,-3.2504 -7.794,-3.2504 l -72.509,-50.838 12.539,-7.8605 z"
         inkscape:connector-curvature="0" />
      <path
         style="fill:#0000ff;stroke-opacity:0.70499998"
         id="path12"
         d="m 565.89,49.821 a 53.675,49.82 0 1 1 -107.35,0"
         inkscape:connector-curvature="0" />
      <g
         style="fill:#0000ff;fill-rule:evenodd"
         id="g18">
        <path
           style="fill:#0000ff"
           id="path14"
           d="m 461.7,67.485 -125.76,31.59 14.281,57.746 c 0,0 29.678,-7.0864 40.884,-11.533 39.806,-15.796 89.392,-56.969 89.392,-56.969 L 461.703,67.485 Z"
           inkscape:connector-curvature="0" />
        <path
           style="fill:#0000ff"
           id="path16"
           d="m 351.51,156.48 c 0,0 -73.078,19.951 -105.23,20.155 -22.19,-3.7053 -100.03,-18.116 -100.03,-18.116 l 7.3193,-19.477 c 0,0 90.953,12.755 95.151,12.683 4.5201,-0.0774 63.434,-20.381 63.434,-20.381 0,0 -86.999,5.5128 -95.151,4.529 -8.1522,-0.98376 -93.999,-21.06 -93.999,-21.06 l 13.35,-17.893 c 0,0 75.154,13.728 86.036,15.855 1.6518,0.32287 3.9386,0.6552 5.6512,0.59792 19.145,-0.65065 109.15,-14.412 109.15,-14.412 l 14.317,57.519 z"
           inkscape:connector-curvature="0" />
      </g>
      <g
         style="fill:#0000ff;stroke-width:3;stroke-linecap:round;stroke-linejoin:round"
         id="g24">
        <path
           style="fill:#0000ff"
           id="path20"
           d="m 559.53,45.686 a 5.8255,6.2397071 0 1 1 -11.651,0"
           inkscape:connector-curvature="0" />
        <path
           style="fill:#0000ff"
           id="path22"
           d="m 535.05,46.46 a 6.4695,6.8055052 0 1 1 -12.939,0"
           inkscape:connector-curvature="0" />
      </g>
      <path
         style="fill:#0000ff;stroke-opacity:0.70499998"
         id="path26"
         d="m 512.22,0 c -29.629,0 -53.69,22.334 -53.69,49.834 0,27.501 24.062,49.785 53.69,49.785 8.4357,0 16.432,-1.7801 23.536,-5.0032 -31.321,-2.9692 -55.238,-18.856 -55.238,-37.995 0,-21.25 29.496,-38.49 65.858,-38.49 2.529,0 5.0167,0.08524 7.4718,0.24769 -9.8448,-11.214 -24.84,-18.378 -41.628,-18.378 z"
         inkscape:connector-curvature="0" />
      <path
         style="fill:#0000ff;fill-rule:evenodd;stroke-width:1.824"
         id="path28"
         d="m 503.09,32.454 c 5.5822,-6.8422 12.487,-9.3315 25.493,-9.1314 7.326,0.11281 12.199,-0.03541 18.363,0.15006 8.4277,0.25368 15.845,-1.5421 21.156,4.8916 5.8386,6.0848 6.696,19.829 4.8828,29.431 -1.3457,7.126 -4.9716,9.8665 -10.466,11.175 -5.5745,1.3281 -6.0829,1.9325 -11.015,-2.7801 -2.4277,-2.8156 -6.1027,-9.0329 -10.189,-7.4003 -4.3597,1.9849 -10.653,8.7256 -15.033,10.745 -4.0505,2.3449 -8.561,3.2082 -12.968,3.8116 -7.1028,-0.27662 -12.22,-8.2821 -13.856,-16.171 -1.8871,-8.3352 -1.6866,-18.202 3.6323,-24.722 z"
         inkscape:connector-curvature="0" />
      <rect
         style="fill:#0000ff;stroke-width:4.19999981"
         id="rect30"
         ry="11.871"
         rx="18.566999"
         height="25.783001"
         width="89.042999"
         y="177.14999"
         x="-648.31"
         transform="matrix(1.6647,-0.35421,0.38162,1.5451,1302.5,-438.78)" />
      <g
         style="fill:#0000ff;stroke-width:3"
         id="g36">
        <rect
           style="fill:#0000ff"
           id="rect32"
           ry="9.2714005"
           rx="8.9428997"
           height="22.857"
           width="20"
           y="321.09"
           x="-455.57999"
           transform="matrix(1.7078,0,0,1.5852,1302.5,-438.78)" />
        <rect
           style="fill:#0000ff"
           id="rect34"
           ry="5.7143002"
           rx="4.9022002"
           height="11.429"
           width="12.857"
           y="179.17"
           x="-565.75"
           transform="matrix(1.6617,-0.36611,0.39444,1.5423,1302.5,-438.78)" />
      </g>
      <path
         style="fill:#0000ff;fill-rule:evenodd"
         id="path38"
         d="m 376.33,87.693 c -3.9478,5.4657 9.2717,58.25 17.208,59.968 11.674,2.5262 49.948,-27.336 49.948,-27.336 0,0 -4.1989,-30.186 0.12543,-36.635 3.0363,-4.5276 10.394,-7.2011 15.527,-4.8038 5.2763,2.4645 9.1664,18.955 9.1664,18.955 0,0 9.7484,-3.6715 9.27,-6.388 -1.7262,-9.7994 -5.1189,-19.293 -22.738,-23.323 -17.619,-4.0304 -76.02,16.121 -78.507,19.563 z"
         inkscape:connector-curvature="0" />
      <g
         style="fill:#0000ff;stroke-linecap:round;stroke-linejoin:round"
         id="g50">
        <g
           style="fill:#0000ff;stroke-width:3"
           id="g46">
          <rect
             style="fill:#0000ff"
             id="rect40"
             height="5.3052001"
             width="50.577"
             y="553.90997"
             x="-628.96002"
             transform="matrix(0.32851,1.1624,-1.4217,0.26859,1351.3,675.06)" />
          <rect
             style="fill:#0000ff"
             id="rect42"
             height="11.112"
             width="6.566"
             y="551.09003"
             x="-625.88"
             transform="matrix(0.32851,1.1624,-1.4217,0.26859,1351.3,675.06)" />
          <rect
             style="fill:#0000ff"
             id="rect44"
             height="11.112"
             width="6.566"
             y="551.02002"
             x="-588.09998"
             transform="matrix(0.32851,1.1624,-1.4217,0.26859,1351.3,675.06)" />
        </g>
        <rect
           style="fill:#0000ff;stroke-width:3.46399999"
           id="rect48"
           height="10.648"
           width="9.1329002"
           y="551.25"
           x="-608.57001"
           transform="matrix(0.32851,1.1624,-1.4217,0.26859,1351.3,675.06)" />
      </g>
      <g
         style="fill:#0000ff;fill-rule:evenodd"
         id="g64">
        <path
           style="fill:#0000ff"
           id="path52"
           d="m 129.68,86.731 c 5.4984,1.452 7.6451,10.417 7.6451,10.417 l -13.878,17.693 -15.526,-2.9889 -70.74,35.95 -37.179,-42.25 97.886,-6.3759 c 0,0 22.005,-15.03 31.792,-12.446 z"
           inkscape:connector-curvature="0" />
        <path
           style="fill:#0000ff"
           id="path54"
           d="m 143.81,131.34 c 5.6827,-0.57771 10.979,9.0582 10.979,9.0582 l -7.0014,18.426 -17.396,5.3517 -64.654,55.482 -46.136,-39.218 99.811,-26.454 c 0,0 14.283,-21.617 24.398,-22.646 z"
           inkscape:connector-curvature="0" />
        <path
           style="fill:#0000ff"
           id="path56"
           d="m 595.4,90.994 c 1.6669,-4.8443 5.4054,-5.7464 10.148,-6.7629 2.0572,-0.56783 7.1645,-0.8132 7.28,2.9393 -0.25043,1.6998 -4.896,2.8242 -1.1303,3.2233 4.8136,1.0663 13.484,-5.5267 18.235,-4.7012 2.8884,0.38768 5.0696,9.0162 3.1805,13.13 0.70441,2.3325 2.9916,2.8141 1.4717,4.8679 -1.4491,2.2948 -4.3406,4.2596 -5.8412,6.3076 -3.4592,2.9298 -7.952,2.617 -12.639,3.6613 -4.7209,0.36002 -11.855,0.18993 -18.767,-2.1927 -3.8561,-2.8729 -1.9835,-7.025 -3.0186,-10.661 l 0.0583,-5.948"
           inkscape:connector-curvature="0" />
        <path
           style="fill:#0000ff"
           id="path58"
           d="m 461.25,98.498 -32.629,49.331 68.145,-18.92 6.0719,12.979 -80.812,20.709 c 0,0 -12.759,4.6923 -16.496,2.3092 -4.6333,-2.9547 2.074,-14.584 2.074,-14.584 l 37.966,-58.916 15.68,7.093 z"
           inkscape:connector-curvature="0" />
        <path
           style="fill:#0000ff"
           id="path60"
           d="m 498.47,112.37 c 3.894,-5.07 7.6197,-5.5827 12.282,-6.0936 2.0862,-0.36002 6.6796,0.0155 4.8946,4.1198 -1.0737,1.8212 -5.7049,2.462 -2.6096,3.3708 3.6773,1.768 12.892,-3.7177 16.635,-2.2202 2.3333,0.78601 1.5935,9.8561 -2.1278,14.102 -0.55591,2.6309 -0.95239,6.8159 -3.315,8.8631 -2.4219,2.3186 -4.5261,2.9845 -6.869,5.0277 -4.5004,2.7578 -9.7444,2.4294 -14.372,2.9775 -4.3131,-0.20181 -8.4938,-2.3158 -11.428,-6.0327 -1.9311,-3.6164 0.10898,-9.4636 1.0306,-13.557 l 3.0409,-6.4755"
           inkscape:connector-curvature="0" />
        <path
           style="fill:#0000ff;stroke-width:3;stroke-linecap:round;stroke-linejoin:round"
           id="path62"
           d="m 446.63,57.941 c -58.706,73.886 80.467,37.358 93.13,33.58 l -2.4398,-2.2646"
           inkscape:connector-curvature="0" />
      </g>
    </g>
    <text
       xml:space="preserve"
       style="font-style:normal;font-weight:normal;font-size:18.35593987px;line-height:1.25;font-family:sans-serif;letter-spacing:0px;word-spacing:0px;fill:#000000;fill-opacity:1;stroke:#000000;stroke-width:0.45914051;stroke-miterlimit:4;stroke-dasharray:none;stroke-opacity:1"
       x="20.343885"
       y="155.16393"
       id="text1497"
       transform="scale(0.83719997,1.1944578)"><tspan
         sodipodi:role="line"
         id="tspan1495"
         x="20.343885"
         y="155.16393"
         style="stroke:#000000;stroke-width:0.45914051;stroke-miterlimit:4;stroke-dasharray:none;stroke-opacity:1">Club de plongée</tspan><tspan
         sodipodi:role="line"
         x="20.343885"
         y="178.10886"
         style="stroke:#000000;stroke-width:0.45914051;stroke-miterlimit:4;stroke-dasharray:none;stroke-opacity:1"
         id="tspan2222">    de Nevers</tspan></text>
    <text
       xml:space="preserve"
       style="font-style:normal;font-weight:normal;font-size:10.58333302px;line-height:1.25;font-family:sans-serif;letter-spacing:0px;word-spacing:0px;fill:#000000;fill-opacity:1;stroke:none;stroke-width:0.26458332"
       x="142.56448"
       y="206.68428"
       id="text2226"><tspan
         sodipodi:role="line"
         id="tspan2224"
         x="142.56448"
         y="216.04805"
         style="stroke-width:0.26458332" /></text>
    <text
       xml:space="preserve"
       style="font-style:normal;font-weight:normal;font-size:10.58333302px;line-height:1.25;font-family:sans-serif;letter-spacing:0px;word-spacing:0px;fill:#000000;fill-opacity:1;stroke:none;stroke-width:0.26458332"
       x="145.92332"
       y="212.65558"
       id="text2230"><tspan
         sodipodi:role="line"
         id="tspan2228"
         x="145.92332"
         y="222.01935"
         style="stroke-width:0.26458332" /></text>
  </g>
</svg>
